<?xml version="1.0"?>
<svg version="1.1" xmlns="http://www.w3.org/2000/svg" width="57px" height="51px" style=""><path fill="#11bdac" d="M1.276,42.842l1.798,0l0-12.267q0-2.436,1.856-4.292t4.292-1.856q2.378,0,4.292,1.856q1.827,1.827,1.827,4.292l0,12.267l1.856,0l0-12.267q0-2.494,1.856-4.292q1.856-1.856,4.263-1.856q2.436,0,4.292,1.856t1.856,4.292l0,12.267l1.798,0l0-12.267q0-3.306-2.32-5.626t-5.626-2.32q-2.175,0-4.089,1.189q-1.943,1.218-2.784,3.103q-1.131-1.943-3.045-3.103q-2.001-1.189-4.176-1.189q-3.277,0-5.597,2.32q-2.349,2.349-2.349,5.626l0,12.267z M52.19536,22.542l-1.827,0l0,9.28l-12.238,0l0-9.28l-1.827,0l0,20.358l1.827,0l0-9.251l12.238,0l0,9.251l1.827,0l0-20.358z"/><path fill="#" d=""/></svg>
